<svg xmlns="http://www.w3.org/2000/svg" viewBox="0 0 1920 1080" width="1920" height="1080">
  <defs>
    <linearGradient id="skyGrad" x1="0%" y1="0%" x2="0%" y2="100%">
      <stop offset="0%" style="stop-color:#1A237E;stop-opacity:1" />
      <stop offset="30%" style="stop-color:#303F9F;stop-opacity:1" />
      <stop offset="60%" style="stop-color:#5C6BC0;stop-opacity:1" />
      <stop offset="100%" style="stop-color:#9FA8DA;stop-opacity:1" />
    </linearGradient>
  </defs>
  <rect width="1920" height="1080" fill="url(#skyGrad)"/>
  <!-- Stars -->
  <g fill="white" opacity="0.6">
    <circle cx="100" cy="50" r="1"/>
    <circle cx="300" cy="100" r="1.5"/>
    <circle cx="500" cy="30" r="1"/>
    <circle cx="700" cy="80" r="2"/>
    <circle cx="900" cy="120" r="1"/>
    <circle cx="1100" cy="60" r="1.5"/>
    <circle cx="1300" cy="90" r="1"/>
    <circle cx="1500" cy="40" r="2"/>
    <circle cx="1700" cy="110" r="1"/>
    <circle cx="1850" cy="70" r="1.5"/>
    <circle cx="200" cy="200" r="1"/>
    <circle cx="600" cy="180" r="1"/>
    <circle cx="1000" cy="220" r="1.5"/>
    <circle cx="1400" cy="190" r="1"/>
    <circle cx="1800" cy="210" r="2"/>
  </g>
  <!-- Distant ring silhouette -->
  <ellipse cx="960" cy="400" rx="800" ry="100" fill="none" stroke="#7986CB" stroke-width="2" opacity="0.3"/>
  <ellipse cx="960" cy="400" rx="700" ry="80" fill="none" stroke="#5C6BC0" stroke-width="1" opacity="0.2"/>
</svg>